<svg width="512" height="512" viewBox="0 0 40 40" fill="none" xmlns="http://www.w3.org/2000/svg">
    <defs>
        <linearGradient id="logo-gradient" x1="0%" y1="0%" x2="100%" y2="100%">
            <stop offset="0%" stop-color="#0ea5e9" />
            <stop offset="100%" stop-color="#06b6d4" />
        </linearGradient>
        <filter id="shadow" x="-20%" y="-20%" width="140%" height="140%">
            <feDropShadow dx="0" dy="1" stdDeviation="1" flood-color="#000000" flood-opacity="0.15"/>
        </filter>
    </defs>
    <rect width="40" height="40" rx="8" fill="url(#logo-gradient)"/>
    <g transform="translate(5, 8)" filter="url(#shadow)">
        <rect x="12" y="3" width="16" height="10" rx="2" fill="#FBBF24"/>
        <rect x="14" y="8" width="3.5" height="2.5" rx="0.5" fill="#F59E0B"/>
        <path d="M0 10C0 8.89543 0.895431 8 2 8H28C29.1046 8 30 8.89543 30 10V22C30 23.1046 29.1046 24 28 24H2C0.895431 24 0 23.1046 0 22V10Z" fill="#475569"/>
        <path d="M0 13C0 11.8954 0.895431 11 2 11H28C29.1046 11 30 11.8954 30 13V22C30 23.1046 29.1046 24 28 24H2C0.895431 24 0 23.1046 0 22V13Z" fill="#64748B"/>
        <path d="M2 13.5H28" stroke="#94A3B8" stroke-width="0.75" stroke-linecap="round" stroke-dasharray="1.5 1.5"/>
    </g>
</svg>
